<?xml version="1.0" encoding="UTF-8" standalone="no"?>
<svg
   xmlns:dc="http://purl.org/dc/elements/1.1/"
   xmlns:cc="http://creativecommons.org/ns#"
   xmlns:rdf="http://www.w3.org/1999/02/22-rdf-syntax-ns#"
   xmlns:svg="http://www.w3.org/2000/svg"
   xmlns="http://www.w3.org/2000/svg"
   height="162.87712"
   width="484.31812"
   id="svg8"
   preserveAspectRatio="xMidYMid meet"
   version="1.1">
  <metadata
     id="metadata14">
    <rdf:RDF>
      <cc:Work
         rdf:about="">
        <dc:format>image/svg+xml</dc:format>
        <dc:type
           rdf:resource="http://purl.org/dc/dcmitype/StillImage" />
        <dc:title></dc:title>
      </cc:Work>
    </rdf:RDF>
  </metadata>
  <defs
     id="defs12">
    <pattern
       id="pattern8474"
       height="162.87713"
       width="484.3181"
       patternUnits="userSpaceOnUse">
      <g
         id="g3728">
        <g
           id="g3722">
          <path
             id="path2"
             style="fill:#263a9e;fill-rule:evenodd"
             d="M 78.539,161.96353 C 47.441,112.84253 21.256,60.483527 0,4.8835273 c 49.57,-6.3319 101.77,-6.6884 157.08,0 C 150.8206,33.909527 141.088,60.157527 127.627,83.422527 H 78.539 l 39.27,-9.8177 c 5.5636,-16.591 9.0551,-32.976 9.8176,-49.087 -28.978,-5.2825 -58.419,-5.4052 -88.358,0 7.6977,46.442 21.25,92.203003 39.27,137.450003 z" />
          <path
             id="path4"
             style="fill:#263a9e;fill-rule:evenodd"
             d="m 174.07,12.448527 c 0,13.997 15.047,15.887 15.047,25.965 0,3.4994 -1.5395,4.7591 -3.9892,4.7591 -2.4494,0 -3.9889,-1.2597 -3.9889,-4.7591 v -3.4994 h -7.2785 v 3.0096 c 0,7.8383 3.9192,12.317 11.478,12.317 7.5586,0 11.478,-4.4791 11.478,-12.317 0,-13.997 -15.047,-15.887 -15.047,-25.965 0,-3.4993997 1.3994,-4.8290997 3.8491,-4.8290997 2.4495,0 3.8492,1.3297 3.8492,4.8290997 v 2.0296 h 7.2785 v -1.5398 c 0,-7.8382997 -3.8491,-12.31699974 -11.338,-12.31699974 -7.4889,0 -11.338,4.47910004 -11.338,12.31699974 z m 48.85,37.232 h 7.6983 V 0.69052726 H 222.92 Z m 34.013,-37.232 c 0,13.997 15.047,15.887 15.047,25.965 0,3.4994 -1.5395,4.7591 -3.9892,4.7591 -2.4494,0 -3.9889,-1.2597 -3.9889,-4.7591 v -3.4994 h -7.2785 v 3.0096 c 0,7.8383 3.9192,12.317 11.478,12.317 7.5586,0 11.478,-4.4791 11.478,-12.317 0,-13.997 -15.047,-15.887 -15.047,-25.965 0,-3.4993997 1.3994,-4.8290997 3.8491,-4.8290997 2.4495,0 3.8492,1.3297 3.8492,4.8290997 v 2.0296 h 7.2785 v -1.5398 c 0,-7.8382997 -3.8491,-12.31699974 -11.338,-12.31699974 -7.4889,0 -11.338,4.47910004 -11.338,12.31699974 z m 46.611,-4.7587997 h 8.0484 V 49.680727 h 7.6983 V 7.6897273 h 8.0485 V 0.69102726 h -23.795 z m 56.549,0 H 373.39 V 0.69102726 H 352.394 V 49.681027 h 20.996 v -6.9984 h -13.297 v -14.347 h 10.568 v -6.9985 h -10.568 z m 50.39,-6.99870004 H 399.775 V 49.681027 h 6.7187 v -34.643 l 5.7388,34.643 h 7.2785 l 5.3189,-35.133 v 35.133 h 7.2785 V 0.69102726 h -10.708 l -5.249,34.78299974 z m 65.997,0 H 465.212 L 457.3736,49.681027 h 7.0685 l 1.3297,-8.8883 h 9.4482 l 1.3297,8.8883 h 7.7684 z m -6.0188,8.67820004 3.7091,24.7749997 h -7.4182 z" />
          <path
             id="path6"
             style="fill:#263a9e;fill-rule:evenodd"
             d="M 197.03,61.437527 H 173.818 V 161.73753 h 15.761 v -37.683 h 7.4506 c 15.761,0 23.498,-8.7401 23.498,-24.788003 v -13.038 c 0,-16.048 -7.7371,-24.788 -23.498,-24.788 z m 0,14.328 c 5.0147,0 7.7371,2.2926 7.7371,9.4566 v 15.044003 c 0,7.164 -2.7224,9.4567 -7.7371,9.4567 h -7.4506 V 75.764827 Z m 63.903,-14.328 H 237.865 L 221.817,161.73753 h 14.472 l 2.7221,-18.197 h 19.343 l 2.7221,18.197 h 15.904 z m -12.322,17.767 7.594,50.721003 h -15.188 z m 35.677,82.530003 h 41.695 v -14.328 H 300.049 V 61.438527 h -15.761 z m 48.572,0 h 41.695 v -14.328 H 348.621 V 61.438527 H 332.86 Z M 416.392,61.434527 H 393.324 L 377.276,161.73453 h 14.471 l 2.7221,-18.197 h 19.343 l 2.7221,18.197 h 15.904 z m -12.322,17.767 7.594,50.721003 h -15.188 z m 33.671,6.3045 c 0,28.656003 30.805,32.524003 30.805,53.157003 0,7.164 -3.1521,9.7429 -8.1669,9.7429 -5.0148,0 -8.1669,-2.5789 -8.1669,-9.7429 v -7.164 h -14.901 v 6.1611 c 0,16.047 8.0234,25.217 23.498,25.217 15.474,0 23.498,-9.1701 23.498,-25.217 0,-28.656 -30.805,-32.525 -30.805,-53.157003 0,-7.1643 2.8655,-9.8864 7.8803,-9.8864 5.0148,0 7.8803,2.7221 7.8803,9.8864 v 4.155 h 14.901 v -3.1521 c 0,-16.048 -7.8803,-25.217 -23.211,-25.217 -15.331,0 -23.212,9.1698 -23.212,25.217 z" />
        </g>
      </g>
    </pattern>
  </defs>
  <g
     style="image-rendering:optimizeSpeed"
     id="logo">
    <g
       id="g9215">
      <g
         id="g9209">
        <g
           id="g9204">
          <g
             id="g9200">
            <rect
               id="rect8481"
               y="4.1046093e-08"
               x="0"
               height="162.87714"
               width="484.31812"
               style="fill:url(#pattern8474);stroke:none" />
          </g>
        </g>
      </g>
    </g>
  </g>
</svg>
